<?xml version="1.0" encoding="utf-8"?>
<!-- Generator: Adobe Illustrator 24.3.0, SVG Export Plug-In . SVG Version: 6.00 Build 0)  -->
<svg version="1.1" id="Layer_1" xmlns="http://www.w3.org/2000/svg" xmlns:xlink="http://www.w3.org/1999/xlink" x="0px" y="0px"
	 viewBox="0 0 1440 150" style="enable-background:new 0 0 1440 150;" xml:space="preserve">
<rect style="stroke:#000000;stroke-width:3;stroke-miterlimit:10;" width="1440" height="150"/>
<g>
	<g>
		<path style="fill:#2BB673;" d="M775.243,120.243c0,5.5-4.5,10-10,10h-90.486c-5.5,0-10-4.5-10-10V29.757c0-5.5,4.5-10,10-10
			h90.486c5.5,0,10,4.5,10,10V120.243z"/>
		<path style="fill:none;stroke:#000000;stroke-width:3;stroke-miterlimit:10;" d="M775.243,120.243c0,5.5-4.5,10-10,10h-90.486
			c-5.5,0-10-4.5-10-10V29.757c0-5.5,4.5-10,10-10h90.486c5.5,0,10,4.5,10,10V120.243z"/>
	</g>
	<circle style="fill:#2BB673;stroke:#000000;stroke-width:3;stroke-miterlimit:10;" cx="751.437" cy="64.943" r="6.987"/>
	<circle style="fill:#2BB673;stroke:#000000;stroke-width:3;stroke-miterlimit:10;" cx="702.957" cy="48.424" r="6.987"/>
	<circle style="fill:#2BB673;stroke:#000000;stroke-width:3;stroke-miterlimit:10;" cx="736.937" cy="37.669" r="6.987"/>
	<circle style="fill:#2BB673;stroke:#000000;stroke-width:3;stroke-miterlimit:10;" cx="688.921" cy="80.278" r="6.987"/>
	<path style="fill:#2BB673;stroke:#000000;stroke-width:3;stroke-miterlimit:10;" d="M733.213,130.243c0,0,0-44.818,0-48.388
		c1.255-1.255,13.151-13.151,13.151-13.151"/>
	<path style="fill:#2BB673;stroke:#000000;stroke-width:3;stroke-miterlimit:10;" d="M693.635,84.785
		c0,0,11.414,11.414,13.061,13.061c0,4.919,0,32.396,0,32.396"/>
	<path style="fill:#2BB673;stroke:#000000;stroke-width:3;stroke-miterlimit:10;" d="M736.892,44.447c0,0,0,15.757,0,18.381
		c-1.937,1.943-10.656,10.662-12.517,12.523c0,4.701,0,54.891,0,54.891"/>
	<path style="fill:#2BB673;stroke:#000000;stroke-width:3;stroke-miterlimit:10;" d="M702.912,54.854v23.491c0,0,0,0.093,0,0.238
		c1.925,1.929,9.992,9.996,11.441,11.445c-0.002,0.242-0.002,0.441-0.002,0.441v39.775"/>
</g>
<g>
</g>
<g>
</g>
<g>
</g>
<g>
</g>
<g>
</g>
<g>
</g>
</svg>
